<?xml version="1.0" encoding="UTF-8"?>
<svg xmlns="http://www.w3.org/2000/svg" xmlns:xlink="http://www.w3.org/1999/xlink" width="60px" height="px" viewBox="0 0 60 60" version="1.1">
<g id="surface1">
<path style=" stroke:none;fill-rule:nonzero;fill:rgb(60.392157%,28.627451%,57.647059%);fill-opacity:1;" d="M 56.410156 17.738281 C 56.410156 16.746094 56.199219 15.851562 55.761719 15.101562 C 55.335938 14.351562 54.703125 13.734375 53.855469 13.246094 C 46.828125 9.195312 39.78125 5.140625 32.75 1.089844 C 30.847656 0 29.023438 0.03125 27.136719 1.140625 C 24.335938 2.78125 10.308594 10.820312 6.144531 13.246094 C 4.417969 14.238281 3.589844 15.769531 3.589844 17.753906 L 3.589844 42.230469 C 3.589844 43.207031 3.800781 44.070312 4.207031 44.816406 C 4.628906 45.582031 5.28125 46.234375 6.144531 46.738281 C 10.324219 49.164062 24.335938 57.183594 27.136719 58.84375 C 29.023438 59.953125 30.863281 60 32.75 58.894531 C 39.78125 54.824219 46.828125 50.789062 53.855469 46.738281 C 54.734375 46.234375 55.371094 45.597656 55.792969 44.816406 C 56.199219 44.070312 56.410156 43.207031 56.410156 42.230469 Z M 56.410156 17.738281 "/>
<path style=" stroke:none;fill-rule:nonzero;fill:rgb(41.568627%,8.235294%,46.666667%);fill-opacity:1;" d="M 30.066406 29.894531 L 4.175781 44.800781 C 4.597656 45.566406 5.25 46.214844 6.109375 46.722656 C 10.292969 49.144531 24.304688 57.167969 27.101562 58.828125 C 28.992188 59.933594 30.828125 59.984375 32.71875 58.878906 C 39.746094 54.808594 46.792969 50.773438 53.824219 46.722656 C 54.703125 46.214844 55.335938 45.582031 55.761719 44.800781 Z M 30.066406 29.894531 "/>
<path style=" stroke:none;fill-rule:nonzero;fill:rgb(41.568627%,8.235294%,46.666667%);fill-opacity:1;" d="M 22.398438 34.304688 C 23.914062 36.941406 26.746094 38.714844 29.984375 38.714844 C 33.253906 38.714844 36.101562 36.925781 37.601562 34.253906 L 30.066406 29.894531 Z M 22.398438 34.304688 "/>
<path style=" stroke:none;fill-rule:nonzero;fill:rgb(50.588235%,18.823529%,51.764706%);fill-opacity:1;" d="M 56.410156 17.738281 C 56.410156 16.746094 56.199219 15.851562 55.761719 15.101562 L 30.066406 29.894531 L 55.792969 44.800781 C 56.199219 44.050781 56.410156 43.191406 56.410156 42.214844 Z M 56.410156 17.738281 "/>
<path style=" stroke:none;fill-rule:nonzero;fill:rgb(100%,100%,100%);fill-opacity:1;" d="M 37.601562 34.253906 C 36.101562 36.90625 33.253906 38.714844 29.984375 38.714844 C 26.730469 38.714844 23.898438 36.941406 22.398438 34.304688 C 21.667969 33.019531 21.246094 31.554688 21.246094 29.976562 C 21.246094 25.140625 25.152344 21.238281 29.984375 21.238281 C 33.207031 21.238281 36.019531 22.996094 37.535156 25.597656 L 45.167969 21.203125 C 42.125 15.964844 36.460938 12.433594 29.96875 12.433594 C 20.269531 12.433594 12.425781 20.292969 12.425781 29.976562 C 12.425781 33.148438 13.269531 36.144531 14.75 38.714844 C 17.777344 43.972656 23.472656 47.519531 29.984375 47.519531 C 36.507812 47.519531 42.207031 43.953125 45.230469 38.664062 Z M 47.25 25.824219 L 45.507812 25.824219 L 45.507812 34.238281 L 47.25 34.238281 Z M 51.105469 25.824219 L 49.367188 25.824219 L 49.367188 34.238281 L 51.105469 34.238281 Z M 51.105469 25.824219 "/>
<path style=" stroke:none;fill-rule:nonzero;fill:rgb(100%,100%,100%);fill-opacity:1;" d="M 52.523438 27.242188 L 44.109375 27.242188 L 44.109375 28.984375 L 52.523438 28.984375 Z M 52.523438 31.082031 L 44.109375 31.082031 L 44.109375 32.824219 L 52.523438 32.824219 Z M 52.523438 31.082031 "/>
</g>
</svg>
