<?xml version="1.0" encoding="UTF-8"?>
<svg xmlns="http://www.w3.org/2000/svg" xmlns:xlink="http://www.w3.org/1999/xlink" width="60px" height="px" viewBox="0 0 60 67" version="1.1">
<g id="surface1">
<path style=" stroke:none;fill-rule:nonzero;fill:rgb(0%,34.901961%,61.176471%);fill-opacity:1;" d="M 59.238281 50.300781 C 59.707031 49.492188 60 48.578125 60 47.757812 L 60 19.308594 C 60 18.488281 59.707031 17.578125 59.238281 16.765625 L 30 33.535156 Z M 59.238281 50.300781 "/>
<path style=" stroke:none;fill-rule:nonzero;fill:rgb(0%,26.666667%,50.980392%);fill-opacity:1;" d="M 32.597656 66.453125 L 57.402344 52.230469 C 58.117188 51.820312 58.765625 51.109375 59.238281 50.300781 L 30 33.535156 L 0.761719 50.300781 C 1.234375 51.109375 1.882812 51.820312 2.597656 52.230469 L 27.402344 66.453125 C 28.832031 67.273438 31.167969 67.273438 32.597656 66.453125 Z M 32.597656 66.453125 "/>
<path style=" stroke:none;fill-rule:nonzero;fill:rgb(39.607843%,60.392157%,82.352941%);fill-opacity:1;" d="M 59.238281 16.765625 C 58.765625 15.957031 58.117188 15.25 57.402344 14.839844 L 32.597656 0.613281 C 31.167969 -0.203125 28.832031 -0.203125 27.402344 0.613281 L 2.597656 14.839844 C 1.167969 15.660156 0 17.671875 0 19.308594 L 0 47.757812 C 0 48.578125 0.292969 49.492188 0.761719 50.300781 L 30 33.535156 Z M 59.238281 16.765625 "/>
<path style=" stroke:none;fill-rule:nonzero;fill:rgb(100%,100%,100%);fill-opacity:1;" d="M 30 53.398438 C 18.972656 53.398438 10 44.488281 10 33.535156 C 10 22.578125 18.972656 13.667969 30 13.667969 C 37.117188 13.667969 43.753906 17.472656 47.320312 23.59375 L 38.664062 28.570312 C 36.878906 25.503906 33.558594 23.601562 30 23.601562 C 24.484375 23.601562 20 28.058594 20 33.535156 C 20 39.011719 24.484375 43.46875 30 43.46875 C 33.558594 43.46875 36.878906 41.5625 38.664062 38.496094 L 47.320312 43.472656 C 43.753906 49.597656 37.117188 53.398438 30 53.398438 Z M 30 53.398438 "/>
<path style=" stroke:none;fill-rule:nonzero;fill:rgb(100%,100%,100%);fill-opacity:1;" d="M 50 32.429688 L 47.777344 32.429688 L 47.777344 30.222656 L 45.554688 30.222656 L 45.554688 32.429688 L 43.332031 32.429688 L 43.332031 34.636719 L 45.554688 34.636719 L 45.554688 36.84375 L 47.777344 36.84375 L 47.777344 34.636719 L 50 34.636719 Z M 50 32.429688 "/>
<path style=" stroke:none;fill-rule:nonzero;fill:rgb(100%,100%,100%);fill-opacity:1;" d="M 58.332031 32.429688 L 56.109375 32.429688 L 56.109375 30.222656 L 53.890625 30.222656 L 53.890625 32.429688 L 51.667969 32.429688 L 51.667969 34.636719 L 53.890625 34.636719 L 53.890625 36.84375 L 56.109375 36.84375 L 56.109375 34.636719 L 58.332031 34.636719 Z M 58.332031 32.429688 "/>
</g>
</svg>
