<?xml version="1.0" encoding="UTF-8"?>
<svg xmlns="http://www.w3.org/2000/svg" xmlns:xlink="http://www.w3.org/1999/xlink" width="60px" height="px" viewBox="0 0 60 59" version="1.1">
<defs>
<linearGradient id="linear0" gradientUnits="userSpaceOnUse" x1="55.549179" y1="77.070274" x2="110.14919" y2="131.85291" gradientTransform="matrix(0.545455,0,0,0.536364,-24.511364,-36.187784)">
<stop offset="0" style="stop-color:rgb(21.960784%,49.411765%,72.156863%);stop-opacity:1;"/>
<stop offset="1" style="stop-color:rgb(21.176471%,41.176471%,58.039216%);stop-opacity:1;"/>
</linearGradient>
<linearGradient id="linear1" gradientUnits="userSpaceOnUse" x1="89.136749" y1="111.92053" x2="147.77737" y2="168.1012" gradientTransform="matrix(0.545455,0,0,0.536364,-24.511364,-36.187784)">
<stop offset="0" style="stop-color:rgb(100%,87.843137%,32.156863%);stop-opacity:1;"/>
<stop offset="1" style="stop-color:rgb(100%,76.470588%,19.215686%);stop-opacity:1;"/>
</linearGradient>
</defs>
<g id="surface1">
<path style=" stroke:none;fill-rule:nonzero;fill:url(#linear0);" d="M 29.898438 0 C 14.609375 0 15.5625 6.519531 15.5625 6.519531 L 15.578125 13.273438 L 30.171875 13.273438 L 30.171875 15.304688 L 9.785156 15.304688 C 9.785156 15.304688 0 14.210938 0 29.382812 C 0 44.554688 8.539062 44.015625 8.539062 44.015625 L 13.636719 44.015625 L 13.636719 36.976562 C 13.636719 36.976562 13.363281 28.578125 22.039062 28.578125 C 30.71875 28.578125 36.511719 28.578125 36.511719 28.578125 C 36.511719 28.578125 44.640625 28.707031 44.640625 20.851562 C 44.640625 12.996094 44.640625 7.859375 44.640625 7.859375 C 44.640625 7.859375 45.875 0 29.898438 0 Z M 21.851562 4.542969 C 23.304688 4.542969 24.476562 5.695312 24.476562 7.125 C 24.476562 8.550781 23.304688 9.703125 21.851562 9.703125 C 20.402344 9.703125 19.226562 8.550781 19.226562 7.125 C 19.226562 5.695312 20.402344 4.542969 21.851562 4.542969 Z M 21.851562 4.542969 "/>
<path style=" stroke:none;fill-rule:nonzero;fill:url(#linear1);" d="M 30.332031 58.917969 C 45.621094 58.917969 44.667969 52.398438 44.667969 52.398438 L 44.648438 45.640625 L 30.058594 45.640625 L 30.058594 43.613281 L 50.445312 43.613281 C 50.445312 43.613281 60.230469 44.707031 60.230469 29.535156 C 60.230469 14.363281 51.691406 14.902344 51.691406 14.902344 L 46.59375 14.902344 L 46.59375 21.941406 C 46.59375 21.941406 46.867188 30.339844 38.191406 30.339844 C 29.511719 30.339844 23.71875 30.339844 23.71875 30.339844 C 23.71875 30.339844 15.585938 30.210938 15.585938 38.066406 C 15.585938 45.921875 15.585938 51.054688 15.585938 51.054688 C 15.585938 51.054688 14.351562 58.917969 30.332031 58.917969 Z M 38.378906 54.375 C 36.925781 54.375 35.753906 53.222656 35.753906 51.792969 C 35.753906 50.367188 36.925781 49.210938 38.378906 49.210938 C 39.828125 49.210938 41.003906 50.367188 41.003906 51.792969 C 41.003906 53.222656 39.828125 54.375 38.378906 54.375 Z M 38.378906 54.375 "/>
</g>
</svg>
